<?xml version="1.0" standalone="no"?><!DOCTYPE svg PUBLIC "-//W3C//DTD SVG 1.1//EN" "http://www.w3.org/Graphics/SVG/1.1/DTD/svg11.dtd"><svg t="1602212847535" class="icon" viewBox="0 0 1024 1024" version="1.1" xmlns="http://www.w3.org/2000/svg" p-id="1202" xmlns:xlink="http://www.w3.org/1999/xlink" width="200" height="200"><defs><style type="text/css"></style></defs><path d="M784.398 462.197c-30.69-41.93-70.09-74.295-106.084-109.464-23.355-22.504-38.273 6.483-55.996 13.242-18.573 7.034-37.422 12.09-57.123 11.54-30.085-0.577-54.292 11.237-74.845 31.488-25.882 25.333-51.765 50.364-76.218 77.098-27.861 30.114-21.102 50.061 17.996 63.854 23.354 8.187 41.626-1.099 58.799-14.342 83.004-63.305 83.004-63.58 157.85 12.391 9.26 9.26 17.721 19.124 27.558 28.135 12.117 10.962 15.744 37.696 40.253 26.46 20.799-9.288 31.212-29.84 31.488-52.068 0.275-27.01 2.528-52.067 25.882-70.338 4.506-3.654 6.484-10.688 10.44-17.996zM672.681 692.885c4.782-81.3-39.675-107.485-69.788-142.93-25.883-30.086-48.66-34.894-75.12-1.374-13.49 16.87-31.514 28.685-52.863 33.74-44.759 10.689-82.73-2.801-107.487-39.948-24.207-35.72 4.506-60.778 26.432-85.232 10.716-12.117 23.355-22.805 34.345-34.894 17.42-18.574 27.833-36.874-10.139-42.203-15.744-2.254-26.734-11.266-37.148-21.954-8.435-8.435-18.546-17.997-29.537-7.886-35.718 33.191-73.168 65.832-104.381 103.255-19.7 23.903 17.144 42.203 18.848 65.832 0.577 6.484 4.507 12.968 3.93 19.124-6.457 63.883 32.366 102.43 76.273 139.577 35.994 30.665 69.762 64.13 105.508 95.369 34.593 30.665 73.691 55.694 119.576 27.56 50.062-30.936 96.497-68.085 101.551-108.036zM530.026 844.278c-34.016-2.527-64.404-12.693-90.039-35.746-52.314-47.286-104.931-94.27-156.97-141.804-29.263-26.706-45.034-59.926-45.309-99.877 0-42.505-10.962-67.81-62.453-75.119-47.835-6.759-72.042-58.248-106.085-90.588-4.781-4.78-5.33-12.117 0.303-17.749 6.731-6.759 16.018-5.88 22.2-0.275 19.7 16.87 39.675 34.345 57.7 53.193 20.525 21.927 37.971 26.706 61.052 1.95 40.5-43.054 82.703-84.406 125.483-124.933 21.954-20.798 21.102-37.696-0.577-57.37-19.398-17.447-37.697-36.597-55.694-55.446-7.034-7.31-12.39-16.87-3.93-26.158 8.985-9.56 19.124-4.78 25.581 3.078 33.769 41.38 93.144 62.755 92.017 131.417-0.275 33.191 68.361 60.75 110.289 48.111 20.25-6.484 40.226-13.793 61.877-13.793 41.38-0.55 62.48-15.47 70.064-62.454 7.886-50.088 60.227-74.57 94.545-108.887 5.083-4.78 12.667-3.077 17.721 2.254 6.759 7.308 5.358 15.771-0.55 21.925-19.122 20.552-37.998 41.104-58.248 59.953-21.102 19.673-22.503 36.57-0.55 57.37 43.028 40.526 85.231 81.878 125.76 124.933 22.776 24.206 40.527 20.827 61.05-1.677 16.596-18.024 34.593-34.894 52.893-51.215 7.582-6.758 18.27-10.99 26.43-1.4 8.766 9.864 1.43 19.424-5.878 25.304-40.803 31.543-61.63 91.715-129.44 85.56-21.1-1.704-32.339 19.673-35.17 41.05-1.676 12.968 1.128 29.563-5.907 38.273-59.925 72.317-77.097 172.467-153.893 234.097-28.138 22.506-59.103 34.046-94.272 36.023z" p-id="1203" fill="#ffffff"></path></svg>