<?xml version="1.0" standalone="no"?><!DOCTYPE svg PUBLIC "-//W3C//DTD SVG 1.1//EN" "http://www.w3.org/Graphics/SVG/1.1/DTD/svg11.dtd"><svg t="1602212784958" class="icon" viewBox="0 0 1024 1024" version="1.1" xmlns="http://www.w3.org/2000/svg" p-id="1139" xmlns:xlink="http://www.w3.org/1999/xlink" width="200" height="200"><defs><style type="text/css"></style></defs><path d="M664.888086 432.80838l-46.225811 0c0 59.573817-48.287773 107.86159-107.856473 107.86159-59.569724 0-107.86773-48.287773-107.86773-107.86159l-46.228881 0c0 85.102237 68.99642 154.087401 154.095587 154.087401C595.904968 586.895781 664.888086 517.910617 664.888086 432.80838L664.888086 432.80838z" p-id="1140" fill="#ffffff"></path><path d="M957.657013 593.240279c0-78.20413-43.708478-146.232502-108.142999-181.332928-2.968611-184.65765-153.34755-333.49549-338.709235-333.49549-185.383174 0-335.785649 148.865469-338.721515 333.553819C107.649765 447.080431 63.948451 515.076058 63.948451 593.240279c0 95.455025 65.2327 175.572738 153.761989 199.313441l-46.310745 148.745742 46.636157 0 15.412015-46.225811 41.694611-138.997728c-1.084705 0.020466-2.087545 0.319272-3.177366 0.319272-89.354074 0-161.78778-72.436776-161.78778-161.794943 0-53.084009 25.917276-99.773378 65.405639-129.273249 17.523095 123.474173 101.42704 225.318722 214.489072 268.480754l-49.881061 161.265894 0.023536 0-14.319124 46.225811 46.225811 0 15.414061-46.225811 66.275449-190.545754C319.416843 677.994592 218.035852 559.575552 218.035852 417.402505c0-161.692612 131.079384-292.764833 292.768927-292.764833 161.690566 0 292.76074 131.072221 292.76074 292.764833 0 142.173047-101.371782 260.592087-235.765655 287.12437l66.275449 190.545754 15.402805 46.225811 46.227858 0-14.443967-46.224788 0.14224 0L631.506814 733.797525c113.092731-43.166125 197.021236-145.029094 214.519772-268.540106 39.506782 29.496801 65.437361 76.218916 65.437361 129.343857 0 89.358167-72.369238 161.794943-161.652703 161.794943-1.095961 0-2.110057-0.300852-3.201925-0.323365l41.664935 139.001821-0.11768 0 15.405875 46.225811 46.696532 0-46.26879-148.737556C892.460128 768.82939 957.657013 688.703491 957.657013 593.240279L957.657013 593.240279z" p-id="1141" fill="#ffffff"></path></svg>