<?xml version="1.0" standalone="no"?><!DOCTYPE svg PUBLIC "-//W3C//DTD SVG 1.1//EN" "http://www.w3.org/Graphics/SVG/1.1/DTD/svg11.dtd"><svg t="1602212643198" class="icon" viewBox="0 0 1024 1024" version="1.1" xmlns="http://www.w3.org/2000/svg" p-id="3280" xmlns:xlink="http://www.w3.org/1999/xlink" width="200" height="200"><defs><style type="text/css"></style></defs><path d="M512 96c68.6 0 124.5 53.9 127.8 121.6l0.2 6.4c0 17.7-14.3 32-32 32-16.4 0-29.9-12.4-31.8-28.3l-0.2-3.7c0-35.3-28.7-64-64-64s-64 28.7-64 64v64h180.1c6.9 0 13.8 0.7 20.5 2.2l6.7 1.7 265.9 78.5c28.9 8.5 47.4 36 43.4 65.1l-0.9 4.9-17.1 77.3c-2.7 15-15.8 26.3-31.5 26.3-17.7 0-32-14.3-32-32 0-2.6 0.3-5.2 0.9-7.6l-0.2 0.1 16.4-73.6-263.1-77.6-3-0.7-3-0.4-3.1-0.1H407.2l-3.5 0.1-3.4 0.4-3.3 0.8-263 77.5 18 81.1h104v64H150.9c-24.5 0-46.8-14-57.2-37.2l-2-5.1-1.4-5.1-19.6-88.2c-5.9-26.7 7.5-53.1 32.7-66l4.9-2.3 4.9-1.7L379 291.9l5-1.3V224c0-70.7 57.3-128 128-128z m192 384H320c-16.4 0-29.9 12.4-31.8 28.3l-0.2 3.7v224h448V512c0-16.4-12.4-29.9-28.3-31.8l-3.7-0.2z m32 320H288v32c0 16.4 12.4 29.9 28.3 31.8l3.7 0.2h384c16.4 0 29.9-12.4 31.8-28.3l0.2-3.7v-32z m-32-384c53 0 96 43 96 96v320c0 53-43 96-96 96H320c-53 0-96-43-96-96V512c0-53 43-96 96-96h384z" fill="#ffffff" p-id="3281"></path></svg>