<?xml version="1.0" standalone="no"?><!DOCTYPE svg PUBLIC "-//W3C//DTD SVG 1.1//EN" "http://www.w3.org/Graphics/SVG/1.1/DTD/svg11.dtd"><svg t="1602212809597" class="icon" viewBox="0 0 1024 1024" version="1.1" xmlns="http://www.w3.org/2000/svg" p-id="1142" xmlns:xlink="http://www.w3.org/1999/xlink" width="200" height="200"><defs><style type="text/css"></style></defs><path d="M781.1 409.3c-161.1 0-266-54-321.6-140.9C425.1 335 352.6 373 245.6 380.3h-0.6c-1 9.5-1.5 19.1-1.5 28.9v239c0 49.5-40.1 89.6-89.6 89.6-49.5 0-89.6-40.1-89.6-89.6V528.7c0-49.5 40.1-89.6 89.6-89.6 10.5 0 20.5 1.8 29.9 5.1v-35c0-181.5 147.1-328.6 328.6-328.6S841 227.7 841 409.2v35c9.3-3.3 19.4-5.1 29.9-5.1 49.5 0 89.6 40.1 89.6 89.6v119.5c0 49.5-40.1 89.6-89.6 89.6-22 0-42.1-7.9-57.6-21-15.6 34.5-37.3 66-64.3 92.9 4.2 19.1-1.2 39.9-16.1 54.7l-64 63.7c-23.3 23.2-60.9 23.2-84.2 0.1l-0.2-0.2-0.3-0.3c-23.1-23.2-23-60.8 0.2-83.9l64-63.7c17.4-17.3 42.8-21.7 64.2-13.2 35.5-36.2 59.4-82.2 68.7-132.6v-225z m-6.2-57.8c-26.4-120.7-134-211.1-262.6-211.1-10.4 0-20.7 0.6-30.8 1.7 0.7 5.8 0.9 12.9 0.9 21.7 0 2.6 0 5.1-0.1 7.7 3.1 13.8 8.3 29.5 15.9 45 39.8 81.2 126.1 133.6 276.7 135zM419.8 156.7c-75.6 27.7-135.2 88.3-161.6 164.5 108-11.4 159.9-58.3 164.2-145.3-1.3-6.6-2.1-13.1-2.6-19.2zM183.7 648.2V528.7c0-16.5-13.4-29.9-29.9-29.9s-29.9 13.4-29.9 29.9v119.5c0 16.5 13.4 29.9 29.9 29.9s29.9-13.4 29.9-29.9z m657.2-119.5v119.5c0 16.5 13.4 29.9 29.9 29.9s29.9-13.4 29.9-29.9V528.7c0-16.5-13.4-29.9-29.9-29.9s-29.9 13.4-29.9 29.9z m-448.1 89.7c0-16.5 13.4-29.9 29.9-29.9s29.9 13.4 29.9 29.9c0 33 26.7 59.7 59.7 59.7s59.7-26.7 59.7-59.7c0-16.5 13.4-29.9 29.9-29.9s29.9 13.4 29.9 29.9c0 66-53.5 119.5-119.5 119.5-66-0.1-119.5-53.6-119.5-119.5zM452.5 469v29.9V469z m-29.8-29.9c16.5 0 29.9 10 29.9 29.9v29.9c0 19.8-13.4 29.9-29.9 29.9s-29.9-10-29.9-29.9V469c0-19.8 13.4-29.9 29.9-29.9zM631.8 469v29.9V469z m-29.9-29.9c16.5 0 29.9 10 29.9 29.9v29.9c0 19.8-13.4 29.9-29.9 29.9s-29.9-10-29.9-29.9V469c0-19.8 13.4-29.9 29.9-29.9z" p-id="1143" fill="#ffffff"></path></svg>