<?xml version="1.0" standalone="no"?><!DOCTYPE svg PUBLIC "-//W3C//DTD SVG 1.1//EN" "http://www.w3.org/Graphics/SVG/1.1/DTD/svg11.dtd"><svg t="1592138921990" class="icon" viewBox="0 0 1024 1024" version="1.1" xmlns="http://www.w3.org/2000/svg" p-id="6338" xmlns:xlink="http://www.w3.org/1999/xlink" width="200" height="200"><defs><style type="text/css"></style></defs><path d="M626.726951 636.226303c-67.877947-8.906857-54.915727-49.223075-55.431473-51.54598 0.130983-5.866614 0.204661-30.749328 0.204661-30.749328s37.380352-19.995403 48.822962-52.606125c18.010189-11.364839 24.871457-12.958126 27.849278-26.060539 0 0 1.567705-49.520857-17.774829-49.520857 0 0-8.05956 1.290389-5.478781-10.314926 2.576685-11.605316 1.156336-49.078789-0.13303-61.97347-1.291412-12.895705 2.472308-49.752124-24.609491-54.917774-18.485003-3.434216-20.633946 1.789763-29.66053 0.499373-9.027607-1.290389-19.772322-33.688263-36.535101-33.688263l-34.82004 14.59951c-16.761756 0-14.182001 5.166673-23.210631 6.450922-9.027607 1.290389 1.827625-1.285273-25.25315 3.864004-27.078729 5.166673-36.644595 39.980573-37.932937 52.876278-1.289366 12.894681-4.52506 50.368154-3.663436 69.707618 2.576685 11.605316-14.902408 11.605316-14.902408 11.605316-16.225543-1.037632-11.045567 49.522903-11.045567 49.522903 2.332115 12.462846 1.27504 18.672268 25.304316 28.318976 11.44261 32.604582 53.015448 49.062416 53.015448 49.062416s1.446955 20.897959 1.899256 35.796274c-2.443655-1.223874 12.856819 38.056758-61.778019 49.071625-74.636884 11.004635-86.707804 41.097-89.366354 48.641837-11.113105 26.983561-11.313673 111.046119-11.313673 111.046119l432.273191-0.848321c0 0 0.744967-96.737228-13.325493-110.198821C705.790658 671.406546 701.361789 647.231961 626.726951 636.226303zM950.315814 794.855136c0 0-6.853082-69.254294-40.176025-88.589664-10.781554-10.313903-20.655436-28.840862-77.852112-37.270858-57.20077-8.442276-45.916772-37.72623-46.308699-39.504736 0.101307-4.498454 2.097778-23.562649 2.097778-23.562649s23.391756-15.325034 32.162514-40.312124c13.800307-8.711406 3.561106-9.933233 5.841032-19.973914 0 0 5.360078-44.432978-6.083555-37.95545 0 0-10.827603 0.992607-8.848529-7.897877 1.974981-8.900717 3.574409-37.619806 2.584871-47.496757-0.988514-9.882068 1.893116-38.129412-18.86158-42.084491-14.161534-2.636037-1.998517 1.369184-8.918114 0.381693-6.913457-0.98749-15.150048-13.837146-27.996634-13.837146l-26.683732 4.284583c-12.846586 0-10.872628 3.948939-17.786085 4.936429-6.921643 0.98749 1.396813-0.98749-19.35379 2.961448-20.751626 3.960195-15.9646 25.570375-16.950044 35.447327-0.989537 9.884115 1.209548 35.224246 1.867534 50.04479 1.976004 8.894577-4.805446 12.277628-4.805446 12.277628-12.435217-0.796132-6.846942 37.951357-6.846942 37.951357 1.787716 9.5454-2.753717 14.307867 15.659655 21.700231 8.770757 24.981974 22.24463 37.598316 22.24463 37.598316s0.686638 17.240663 1.035586 28.655643c22.204721 13.042037 29.952172 28.151154 41.164538 44.793182 16.305361 18.58938 15.306614 117.453039 15.306614 117.453039C837.374532 794.855136 950.315814 794.855136 950.315814 794.855136zM327.906192 632.608915c0.345877-11.414981 0.60989-28.655643 0.60989-28.655643s18.548448-12.615319 27.319206-37.598316c18.411325-7.392364 12.180414-12.154831 13.967106-21.700231 0 0 5.588275-38.747489-6.846942-37.951357 0 0-10.158361-3.382027-8.185426-12.277628 0.659009-14.820544 2.012843-40.160675 1.022283-50.04479-0.986467-9.876951 3.804652-31.488155-16.950044-35.447327-20.750603-3.948939-12.43317-1.974981-19.35379-2.961448-6.915503-0.98749-2.403746-4.936429-15.250332-4.936429l-26.683732-4.284583c-12.845563 0-21.079084 12.849656-27.996634 13.837146-6.918573 0.98749 5.243421-3.01773-8.918114-0.381693-20.754696 3.955078-17.872043 32.201399-18.86158 42.084491-0.989537 9.876951-1.645476 38.59604 0.329505 47.496757 1.977028 8.890484-4.199649 7.897877-4.199649 7.897877-14.82566 0-13.414521 33.305547-13.414521 33.305547 2.282996 10.04068-3.022847 15.912411 10.777461 24.623817 8.770757 24.988114 32.162514 40.312124 32.162514 40.312124s-0.961908 19.064194-0.861624 23.562649c-0.391926 1.778506 4.974291 30.636764-43.35032 39.504736-57.196677 8.429996-67.070558 26.956955-77.852112 37.270858-42.341341 23.845081-40.178071 89.01536-40.178071 89.01536s112.944352 0 187.504488 0c0 0-0.148379-74.346265 15.310707-117.878734C299.218826 660.760069 305.700447 645.650953 327.906192 632.608915z" p-id="6339"></path></svg>