<?xml version="1.0" standalone="no"?><!DOCTYPE svg PUBLIC "-//W3C//DTD SVG 1.1//EN" "http://www.w3.org/Graphics/SVG/1.1/DTD/svg11.dtd"><svg t="1602212753100" class="icon" viewBox="0 0 1024 1024" version="1.1" xmlns="http://www.w3.org/2000/svg" p-id="1179" xmlns:xlink="http://www.w3.org/1999/xlink" width="200" height="200"><defs><style type="text/css"></style></defs><path d="M1008.562814 15.437186c-27.658291-23.155779-75.899497-17.366834-126.713568-0.643216-50.81407 16.723618-118.994975 86.834171-156.944723 124.140703l-115.778895 113.206031-510.070352-148.582915c-9.005025-1.929648-16.723618-0.643216-23.798995 6.432161L8.361809 164.020101c-5.788945 5.788945-7.718593 12.864322-7.075377 21.22613 1.286432 9.005025 6.432161 15.437186 13.507538 19.296483l428.381909 216.763819-226.41206 264.361809-135.718593-21.869347c-0.643216-0.643216-2.572864-0.643216-4.502512-0.643216-5.145729 0-10.291457 1.929648-13.507538 5.145729l-57.246231 57.246231c-4.502513 4.502513-5.788945 9.648241-5.145729 14.79397 0.643216 6.432161 3.859296 10.291457 7.718593 13.507537l196.824121 64.964824 64.321608 197.467337c3.21608 4.502513 8.361809 7.075377 14.150753 7.718593h1.286433c5.145729 0 10.291457-1.929648 13.507537-5.145729l57.246231-57.246231c5.145729-5.145729 6.432161-11.577889 4.502513-18.653266L337.045226 804.020101l266.934673-223.839196 214.834171 429.025125c3.859296 7.075377 9.005025 10.934673 16.723618 12.864322 1.286432 0.643216 3.21608 0.643216 5.788945 0.643216 6.432161 0 10.934673-1.929648 15.437186-4.502513l64.321608-52.100502c9.005025-6.432161 11.577889-15.437186 9.648241-25.728643l-155.015075-523.57789 116.422111-113.849246c37.949749-37.306533 100.984925-109.98995 117.708542-160.80402 16.080402-50.81407 21.869347-99.055276-1.286432-126.713568z" fill="#ffffff" p-id="1180"></path></svg>